<svg width="360" height="52" viewBox="0 0 360 52" fill="none" xmlns="http://www.w3.org/2000/svg">
<path d="M1357 39C1338.4 37.5538 1319.13 37.6235 1300.15 37.4118C1271.58 37.093 1243.03 36.8824 1214.45 36.8824C1149.55 36.8824 1084.65 36.8824 1019.76 36.8824C930.082 36.8824 840.668 37.3998 751.06 38.4706C700.059 39.08 649.062 38.4587 598.091 37.9608C549.911 37.4902 501.901 37.5882 453.733 37.5882C421.961 37.5882 389.307 38.2653 357.786 36.6863C326.785 35.1333 296.358 32.1428 265.388 30.7255C238.461 29.4932 211.938 27.4949 184.918 26.451C170.597 25.8977 156.499 25.9412 142.093 25.9412C86.1935 25.9412 31.514 24.3559 -23.7344 21.3529C-68.8142 18.9027 -112.368 14.0342 -157.56 11.8235C-170.793 11.1762 -184.692 11.0473 -197.708 10.0588C-202.536 9.6922 -209.981 9.90283 -214 9" stroke="#D2F038" stroke-width="3" stroke-linecap="round"/>
<path d="M-144 50C-134.691 49.876 -125.569 48.946 -116.307 48.5333C-97.6784 47.7031 -78.8898 47.8913 -60.2243 47.4666C-40.6951 47.0222 -21.2784 45.5264 -1.75593 44.9332C17.9482 44.3345 37.6147 44.014 57.2943 43.0998C90.6268 41.5512 123.502 38.0489 156.778 36.3329C201.757 34.0134 246.445 29.9773 291.517 28.1326C332.685 26.4477 373.917 22.9991 415.202 22.9991C442.91 22.9991 470.269 24.0096 497.815 25.6659C521.83 27.1099 546.849 27.2515 571.002 26.5326C596.594 25.7708 622.152 23.1288 647.68 21.7991C678.489 20.1943 709.052 17.6776 740.066 17.599C775.456 17.5092 810.85 17.599 846.24 17.599C921.601 17.599 997.208 13.7078 1072.43 11.3321C1105.95 10.2735 1139.34 9.43422 1172.85 7.99865C1200.82 6.80031 1228.8 4.96293 1256.68 3.19849C1280.73 1.67714 1304.68 1.73941 1328.82 2.63181C1341.71 3.10827 1354.77 4.01317 1367.57 4.99855C1373.96 5.49047 1380.96 5.64408 1387 6.79861" stroke="#D2F038" stroke-width="3" stroke-linecap="round"/>
</svg>
