<svg width="1440" height="52" viewBox="0 0 1440 52" fill="none" xmlns="http://www.w3.org/2000/svg">
<path d="M1456 39C1437.4 37.5538 1418.13 37.6235 1399.15 37.4118C1370.58 37.093 1342.03 36.8824 1313.45 36.8824C1248.55 36.8824 1183.65 36.8824 1118.76 36.8824C1029.08 36.8824 939.668 37.3998 850.06 38.4706C799.059 39.08 748.062 38.4587 697.091 37.9608C648.911 37.4902 600.901 37.5882 552.733 37.5882C520.961 37.5882 488.307 38.2653 456.786 36.6863C425.785 35.1333 395.358 32.1428 364.388 30.7255C337.461 29.4932 310.938 27.4949 283.918 26.451C269.597 25.8977 255.499 25.9412 241.093 25.9412C185.193 25.9412 130.514 24.3559 75.2656 21.3529C30.1858 18.9027 -13.3685 14.0342 -58.5604 11.8235C-71.793 11.1762 -85.6916 11.0473 -98.7081 10.0588C-103.536 9.6922 -110.981 9.90283 -115 9" stroke="#D2F038" stroke-width="3" stroke-linecap="round"/>
<path d="M-45 50C-35.6909 49.876 -26.5693 48.946 -17.3075 48.5333C1.32161 47.7031 20.1102 47.8913 38.7757 47.4666C58.3049 47.0222 77.7216 45.5264 97.2441 44.9332C116.948 44.3345 136.615 44.014 156.294 43.0998C189.627 41.5512 222.502 38.0489 255.778 36.3329C300.757 34.0134 345.445 29.9773 390.517 28.1326C431.685 26.4477 472.917 22.9991 514.202 22.9991C541.91 22.9991 569.269 24.0096 596.815 25.6659C620.83 27.1099 645.849 27.2515 670.002 26.5326C695.594 25.7708 721.152 23.1288 746.68 21.7991C777.489 20.1943 808.052 17.6776 839.066 17.599C874.456 17.5092 909.85 17.599 945.24 17.599C1020.6 17.599 1096.21 13.7078 1171.43 11.3321C1204.95 10.2735 1238.34 9.43422 1271.85 7.99865C1299.82 6.80031 1327.8 4.96293 1355.68 3.19849C1379.73 1.67714 1403.68 1.73941 1427.82 2.63181C1440.71 3.10827 1453.77 4.01317 1466.57 4.99855C1472.96 5.49047 1479.96 5.64408 1486 6.79861" stroke="#D2F038" stroke-width="3" stroke-linecap="round"/>
</svg>
